<svg xmlns="http://www.w3.org/2000/svg" width="144" height="144" viewBox="0 0 144 144"><rect width="144" height="144" fill="#0F172A"/><rect x="2" y="2" width="140" height="140" fill="none" stroke="#22C55E" stroke-width="2"/><rect x="45" y="9" width="9" height="9" fill="#8B7355"/><rect x="54" y="9" width="9" height="9" fill="#8B7355"/><rect x="63" y="9" width="9" height="9" fill="#8B7355"/><rect x="72" y="9" width="9" height="9" fill="#8B7355"/><rect x="81" y="9" width="9" height="9" fill="#8B7355"/><rect x="90" y="9" width="9" height="9" fill="#8B7355"/><rect x="36" y="18" width="9" height="9" fill="#8B7355"/><rect x="45" y="18" width="9" height="9" fill="#8B7355"/><rect x="54" y="18" width="9" height="9" fill="#8B7355"/><rect x="63" y="18" width="9" height="9" fill="#8B7355"/><rect x="72" y="18" width="9" height="9" fill="#8B7355"/><rect x="81" y="18" width="9" height="9" fill="#8B7355"/><rect x="90" y="18" width="9" height="9" fill="#8B7355"/><rect x="99" y="18" width="9" height="9" fill="#8B7355"/><rect x="27" y="27" width="9" height="9" fill="#8B7355"/><rect x="36" y="27" width="9" height="9" fill="#8B7355"/><rect x="45" y="27" width="9" height="9" fill="#8B7355"/><rect x="54" y="27" width="9" height="9" fill="#8B7355"/><rect x="63" y="27" width="9" height="9" fill="#8B7355"/><rect x="72" y="27" width="9" height="9" fill="#8B7355"/><rect x="81" y="27" width="9" height="9" fill="#8B7355"/><rect x="90" y="27" width="9" height="9" fill="#8B7355"/><rect x="99" y="27" width="9" height="9" fill="#8B7355"/><rect x="108" y="27" width="9" height="9" fill="#8B7355"/><rect x="18" y="36" width="9" height="9" fill="#8B7355"/><rect x="27" y="36" width="9" height="9" fill="#8B7355"/><rect x="36" y="36" width="9" height="9" fill="#8B7355"/><rect x="45" y="36" width="9" height="9" fill="#8B7355"/><rect x="54" y="36" width="9" height="9" fill="#8B7355"/><rect x="63" y="36" width="9" height="9" fill="#8B7355"/><rect x="72" y="36" width="9" height="9" fill="#8B7355"/><rect x="81" y="36" width="9" height="9" fill="#8B7355"/><rect x="90" y="36" width="9" height="9" fill="#8B7355"/><rect x="99" y="36" width="9" height="9" fill="#8B7355"/><rect x="108" y="36" width="9" height="9" fill="#8B7355"/><rect x="117" y="36" width="9" height="9" fill="#8B7355"/><rect x="18" y="45" width="9" height="9" fill="#8B7355"/><rect x="27" y="45" width="9" height="9" fill="#8B7355"/><rect x="36" y="45" width="9" height="9" fill="#8B7355"/><rect x="45" y="45" width="9" height="9" fill="#8B7355"/><rect x="54" y="45" width="9" height="9" fill="#1A1A1A"/><rect x="63" y="45" width="9" height="9" fill="#1A1A1A"/><rect x="72" y="45" width="9" height="9" fill="#8B7355"/><rect x="81" y="45" width="9" height="9" fill="#8B7355"/><rect x="90" y="45" width="9" height="9" fill="#1A1A1A"/><rect x="99" y="45" width="9" height="9" fill="#1A1A1A"/><rect x="108" y="45" width="9" height="9" fill="#8B7355"/><rect x="117" y="45" width="9" height="9" fill="#8B7355"/><rect x="18" y="54" width="9" height="9" fill="#8B7355"/><rect x="27" y="54" width="9" height="9" fill="#8B7355"/><rect x="36" y="54" width="9" height="9" fill="#8B7355"/><rect x="45" y="54" width="9" height="9" fill="#8B7355"/><rect x="54" y="54" width="9" height="9" fill="#1A1A1A"/><rect x="63" y="54" width="9" height="9" fill="#1A1A1A"/><rect x="72" y="54" width="9" height="9" fill="#8B7355"/><rect x="81" y="54" width="9" height="9" fill="#8B7355"/><rect x="90" y="54" width="9" height="9" fill="#8B7355"/><rect x="99" y="54" width="9" height="9" fill="#8B7355"/><rect x="108" y="54" width="9" height="9" fill="#8B7355"/><rect x="117" y="54" width="9" height="9" fill="#8B7355"/><rect x="18" y="63" width="9" height="9" fill="#8B7355"/><rect x="27" y="63" width="9" height="9" fill="#8B7355"/><rect x="36" y="63" width="9" height="9" fill="#8B7355"/><rect x="45" y="63" width="9" height="9" fill="#8B7355"/><rect x="54" y="63" width="9" height="9" fill="#8B7355"/><rect x="63" y="63" width="9" height="9" fill="#8B7355"/><rect x="72" y="63" width="9" height="9" fill="#8B7355"/><rect x="81" y="63" width="9" height="9" fill="#8B7355"/><rect x="90" y="63" width="9" height="9" fill="#8B7355"/><rect x="99" y="63" width="9" height="9" fill="#8B7355"/><rect x="108" y="63" width="9" height="9" fill="#8B7355"/><rect x="117" y="63" width="9" height="9" fill="#8B7355"/><rect x="27" y="72" width="9" height="9" fill="#8B7355"/><rect x="36" y="72" width="9" height="9" fill="#8B7355"/><rect x="45" y="72" width="9" height="9" fill="#8B7355"/><rect x="54" y="72" width="9" height="9" fill="#4A3728"/><rect x="63" y="72" width="9" height="9" fill="#4A3728"/><rect x="72" y="72" width="9" height="9" fill="#4A3728"/><rect x="81" y="72" width="9" height="9" fill="#8B7355"/><rect x="90" y="72" width="9" height="9" fill="#8B7355"/><rect x="99" y="72" width="9" height="9" fill="#8B7355"/><rect x="36" y="81" width="9" height="9" fill="#8B7355"/><rect x="45" y="81" width="9" height="9" fill="#8B7355"/><rect x="54" y="81" width="9" height="9" fill="#8B7355"/><rect x="63" y="81" width="9" height="9" fill="#8B7355"/><rect x="72" y="81" width="9" height="9" fill="#8B7355"/><rect x="81" y="81" width="9" height="9" fill="#8B7355"/><rect x="90" y="81" width="9" height="9" fill="#8B7355"/><rect x="45" y="90" width="9" height="9" fill="#8B7355"/><rect x="54" y="90" width="9" height="9" fill="#8B7355"/><rect x="63" y="90" width="9" height="9" fill="#8B7355"/><rect x="72" y="90" width="9" height="9" fill="#8B7355"/><rect x="81" y="90" width="9" height="9" fill="#8B7355"/></svg>