<svg xmlns="http://www.w3.org/2000/svg" width="152" height="152" viewBox="0 0 152 152"><rect width="152" height="152" fill="#0F172A"/><rect x="2" y="2" width="148" height="148" fill="none" stroke="#22C55E" stroke-width="2"/><rect x="47.5" y="9.5" width="9.5" height="9.5" fill="#8B7355"/><rect x="57" y="9.5" width="9.5" height="9.5" fill="#8B7355"/><rect x="66.5" y="9.5" width="9.5" height="9.5" fill="#8B7355"/><rect x="76" y="9.5" width="9.5" height="9.5" fill="#8B7355"/><rect x="85.5" y="9.5" width="9.5" height="9.5" fill="#8B7355"/><rect x="95" y="9.5" width="9.5" height="9.5" fill="#8B7355"/><rect x="38" y="19" width="9.5" height="9.5" fill="#8B7355"/><rect x="47.5" y="19" width="9.5" height="9.5" fill="#8B7355"/><rect x="57" y="19" width="9.5" height="9.5" fill="#8B7355"/><rect x="66.5" y="19" width="9.5" height="9.5" fill="#8B7355"/><rect x="76" y="19" width="9.5" height="9.5" fill="#8B7355"/><rect x="85.5" y="19" width="9.5" height="9.5" fill="#8B7355"/><rect x="95" y="19" width="9.5" height="9.5" fill="#8B7355"/><rect x="104.5" y="19" width="9.5" height="9.5" fill="#8B7355"/><rect x="28.5" y="28.5" width="9.5" height="9.5" fill="#8B7355"/><rect x="38" y="28.5" width="9.5" height="9.5" fill="#8B7355"/><rect x="47.5" y="28.5" width="9.5" height="9.5" fill="#8B7355"/><rect x="57" y="28.5" width="9.5" height="9.5" fill="#8B7355"/><rect x="66.5" y="28.5" width="9.5" height="9.5" fill="#8B7355"/><rect x="76" y="28.5" width="9.5" height="9.5" fill="#8B7355"/><rect x="85.5" y="28.5" width="9.5" height="9.5" fill="#8B7355"/><rect x="95" y="28.5" width="9.5" height="9.5" fill="#8B7355"/><rect x="104.5" y="28.5" width="9.5" height="9.5" fill="#8B7355"/><rect x="114" y="28.5" width="9.5" height="9.5" fill="#8B7355"/><rect x="19" y="38" width="9.5" height="9.5" fill="#8B7355"/><rect x="28.5" y="38" width="9.5" height="9.5" fill="#8B7355"/><rect x="38" y="38" width="9.5" height="9.5" fill="#8B7355"/><rect x="47.5" y="38" width="9.5" height="9.5" fill="#8B7355"/><rect x="57" y="38" width="9.5" height="9.5" fill="#8B7355"/><rect x="66.5" y="38" width="9.5" height="9.5" fill="#8B7355"/><rect x="76" y="38" width="9.5" height="9.5" fill="#8B7355"/><rect x="85.5" y="38" width="9.5" height="9.5" fill="#8B7355"/><rect x="95" y="38" width="9.5" height="9.5" fill="#8B7355"/><rect x="104.5" y="38" width="9.5" height="9.5" fill="#8B7355"/><rect x="114" y="38" width="9.5" height="9.5" fill="#8B7355"/><rect x="123.5" y="38" width="9.5" height="9.5" fill="#8B7355"/><rect x="19" y="47.5" width="9.5" height="9.5" fill="#8B7355"/><rect x="28.5" y="47.5" width="9.5" height="9.5" fill="#8B7355"/><rect x="38" y="47.5" width="9.5" height="9.5" fill="#8B7355"/><rect x="47.5" y="47.5" width="9.5" height="9.5" fill="#8B7355"/><rect x="57" y="47.5" width="9.5" height="9.5" fill="#1A1A1A"/><rect x="66.5" y="47.5" width="9.5" height="9.5" fill="#1A1A1A"/><rect x="76" y="47.5" width="9.5" height="9.5" fill="#8B7355"/><rect x="85.5" y="47.5" width="9.5" height="9.5" fill="#8B7355"/><rect x="95" y="47.5" width="9.5" height="9.5" fill="#1A1A1A"/><rect x="104.5" y="47.5" width="9.5" height="9.5" fill="#1A1A1A"/><rect x="114" y="47.5" width="9.5" height="9.5" fill="#8B7355"/><rect x="123.5" y="47.5" width="9.5" height="9.5" fill="#8B7355"/><rect x="19" y="57" width="9.5" height="9.5" fill="#8B7355"/><rect x="28.5" y="57" width="9.5" height="9.5" fill="#8B7355"/><rect x="38" y="57" width="9.5" height="9.5" fill="#8B7355"/><rect x="47.5" y="57" width="9.5" height="9.5" fill="#8B7355"/><rect x="57" y="57" width="9.5" height="9.5" fill="#1A1A1A"/><rect x="66.5" y="57" width="9.5" height="9.5" fill="#1A1A1A"/><rect x="76" y="57" width="9.5" height="9.5" fill="#8B7355"/><rect x="85.5" y="57" width="9.5" height="9.5" fill="#8B7355"/><rect x="95" y="57" width="9.5" height="9.5" fill="#8B7355"/><rect x="104.5" y="57" width="9.5" height="9.5" fill="#8B7355"/><rect x="114" y="57" width="9.5" height="9.5" fill="#8B7355"/><rect x="123.5" y="57" width="9.5" height="9.5" fill="#8B7355"/><rect x="19" y="66.5" width="9.5" height="9.5" fill="#8B7355"/><rect x="28.5" y="66.5" width="9.5" height="9.5" fill="#8B7355"/><rect x="38" y="66.5" width="9.5" height="9.5" fill="#8B7355"/><rect x="47.5" y="66.5" width="9.5" height="9.5" fill="#8B7355"/><rect x="57" y="66.5" width="9.5" height="9.5" fill="#8B7355"/><rect x="66.5" y="66.5" width="9.5" height="9.5" fill="#8B7355"/><rect x="76" y="66.5" width="9.5" height="9.5" fill="#8B7355"/><rect x="85.5" y="66.5" width="9.5" height="9.5" fill="#8B7355"/><rect x="95" y="66.5" width="9.5" height="9.5" fill="#8B7355"/><rect x="104.5" y="66.5" width="9.5" height="9.5" fill="#8B7355"/><rect x="114" y="66.5" width="9.5" height="9.5" fill="#8B7355"/><rect x="123.5" y="66.5" width="9.5" height="9.5" fill="#8B7355"/><rect x="28.5" y="76" width="9.5" height="9.5" fill="#8B7355"/><rect x="38" y="76" width="9.5" height="9.5" fill="#8B7355"/><rect x="47.5" y="76" width="9.5" height="9.5" fill="#8B7355"/><rect x="57" y="76" width="9.5" height="9.5" fill="#4A3728"/><rect x="66.5" y="76" width="9.5" height="9.5" fill="#4A3728"/><rect x="76" y="76" width="9.5" height="9.5" fill="#4A3728"/><rect x="85.5" y="76" width="9.5" height="9.5" fill="#8B7355"/><rect x="95" y="76" width="9.5" height="9.5" fill="#8B7355"/><rect x="104.5" y="76" width="9.5" height="9.5" fill="#8B7355"/><rect x="38" y="85.5" width="9.5" height="9.5" fill="#8B7355"/><rect x="47.5" y="85.5" width="9.5" height="9.5" fill="#8B7355"/><rect x="57" y="85.5" width="9.5" height="9.5" fill="#8B7355"/><rect x="66.5" y="85.5" width="9.5" height="9.5" fill="#8B7355"/><rect x="76" y="85.5" width="9.5" height="9.5" fill="#8B7355"/><rect x="85.5" y="85.5" width="9.5" height="9.5" fill="#8B7355"/><rect x="95" y="85.5" width="9.5" height="9.5" fill="#8B7355"/><rect x="47.5" y="95" width="9.5" height="9.5" fill="#8B7355"/><rect x="57" y="95" width="9.5" height="9.5" fill="#8B7355"/><rect x="66.5" y="95" width="9.5" height="9.5" fill="#8B7355"/><rect x="76" y="95" width="9.5" height="9.5" fill="#8B7355"/><rect x="85.5" y="95" width="9.5" height="9.5" fill="#8B7355"/></svg>