<svg xmlns="http://www.w3.org/2000/svg" width="96" height="96" viewBox="0 0 96 96"><rect width="96" height="96" fill="#0F172A"/><rect x="2" y="2" width="92" height="92" fill="none" stroke="#22C55E" stroke-width="2"/><rect x="30" y="6" width="6" height="6" fill="#8B7355"/><rect x="36" y="6" width="6" height="6" fill="#8B7355"/><rect x="42" y="6" width="6" height="6" fill="#8B7355"/><rect x="48" y="6" width="6" height="6" fill="#8B7355"/><rect x="54" y="6" width="6" height="6" fill="#8B7355"/><rect x="60" y="6" width="6" height="6" fill="#8B7355"/><rect x="24" y="12" width="6" height="6" fill="#8B7355"/><rect x="30" y="12" width="6" height="6" fill="#8B7355"/><rect x="36" y="12" width="6" height="6" fill="#8B7355"/><rect x="42" y="12" width="6" height="6" fill="#8B7355"/><rect x="48" y="12" width="6" height="6" fill="#8B7355"/><rect x="54" y="12" width="6" height="6" fill="#8B7355"/><rect x="60" y="12" width="6" height="6" fill="#8B7355"/><rect x="66" y="12" width="6" height="6" fill="#8B7355"/><rect x="18" y="18" width="6" height="6" fill="#8B7355"/><rect x="24" y="18" width="6" height="6" fill="#8B7355"/><rect x="30" y="18" width="6" height="6" fill="#8B7355"/><rect x="36" y="18" width="6" height="6" fill="#8B7355"/><rect x="42" y="18" width="6" height="6" fill="#8B7355"/><rect x="48" y="18" width="6" height="6" fill="#8B7355"/><rect x="54" y="18" width="6" height="6" fill="#8B7355"/><rect x="60" y="18" width="6" height="6" fill="#8B7355"/><rect x="66" y="18" width="6" height="6" fill="#8B7355"/><rect x="72" y="18" width="6" height="6" fill="#8B7355"/><rect x="12" y="24" width="6" height="6" fill="#8B7355"/><rect x="18" y="24" width="6" height="6" fill="#8B7355"/><rect x="24" y="24" width="6" height="6" fill="#8B7355"/><rect x="30" y="24" width="6" height="6" fill="#8B7355"/><rect x="36" y="24" width="6" height="6" fill="#8B7355"/><rect x="42" y="24" width="6" height="6" fill="#8B7355"/><rect x="48" y="24" width="6" height="6" fill="#8B7355"/><rect x="54" y="24" width="6" height="6" fill="#8B7355"/><rect x="60" y="24" width="6" height="6" fill="#8B7355"/><rect x="66" y="24" width="6" height="6" fill="#8B7355"/><rect x="72" y="24" width="6" height="6" fill="#8B7355"/><rect x="78" y="24" width="6" height="6" fill="#8B7355"/><rect x="12" y="30" width="6" height="6" fill="#8B7355"/><rect x="18" y="30" width="6" height="6" fill="#8B7355"/><rect x="24" y="30" width="6" height="6" fill="#8B7355"/><rect x="30" y="30" width="6" height="6" fill="#8B7355"/><rect x="36" y="30" width="6" height="6" fill="#1A1A1A"/><rect x="42" y="30" width="6" height="6" fill="#1A1A1A"/><rect x="48" y="30" width="6" height="6" fill="#8B7355"/><rect x="54" y="30" width="6" height="6" fill="#8B7355"/><rect x="60" y="30" width="6" height="6" fill="#1A1A1A"/><rect x="66" y="30" width="6" height="6" fill="#1A1A1A"/><rect x="72" y="30" width="6" height="6" fill="#8B7355"/><rect x="78" y="30" width="6" height="6" fill="#8B7355"/><rect x="12" y="36" width="6" height="6" fill="#8B7355"/><rect x="18" y="36" width="6" height="6" fill="#8B7355"/><rect x="24" y="36" width="6" height="6" fill="#8B7355"/><rect x="30" y="36" width="6" height="6" fill="#8B7355"/><rect x="36" y="36" width="6" height="6" fill="#1A1A1A"/><rect x="42" y="36" width="6" height="6" fill="#1A1A1A"/><rect x="48" y="36" width="6" height="6" fill="#8B7355"/><rect x="54" y="36" width="6" height="6" fill="#8B7355"/><rect x="60" y="36" width="6" height="6" fill="#8B7355"/><rect x="66" y="36" width="6" height="6" fill="#8B7355"/><rect x="72" y="36" width="6" height="6" fill="#8B7355"/><rect x="78" y="36" width="6" height="6" fill="#8B7355"/><rect x="12" y="42" width="6" height="6" fill="#8B7355"/><rect x="18" y="42" width="6" height="6" fill="#8B7355"/><rect x="24" y="42" width="6" height="6" fill="#8B7355"/><rect x="30" y="42" width="6" height="6" fill="#8B7355"/><rect x="36" y="42" width="6" height="6" fill="#8B7355"/><rect x="42" y="42" width="6" height="6" fill="#8B7355"/><rect x="48" y="42" width="6" height="6" fill="#8B7355"/><rect x="54" y="42" width="6" height="6" fill="#8B7355"/><rect x="60" y="42" width="6" height="6" fill="#8B7355"/><rect x="66" y="42" width="6" height="6" fill="#8B7355"/><rect x="72" y="42" width="6" height="6" fill="#8B7355"/><rect x="78" y="42" width="6" height="6" fill="#8B7355"/><rect x="18" y="48" width="6" height="6" fill="#8B7355"/><rect x="24" y="48" width="6" height="6" fill="#8B7355"/><rect x="30" y="48" width="6" height="6" fill="#8B7355"/><rect x="36" y="48" width="6" height="6" fill="#4A3728"/><rect x="42" y="48" width="6" height="6" fill="#4A3728"/><rect x="48" y="48" width="6" height="6" fill="#4A3728"/><rect x="54" y="48" width="6" height="6" fill="#8B7355"/><rect x="60" y="48" width="6" height="6" fill="#8B7355"/><rect x="66" y="48" width="6" height="6" fill="#8B7355"/><rect x="24" y="54" width="6" height="6" fill="#8B7355"/><rect x="30" y="54" width="6" height="6" fill="#8B7355"/><rect x="36" y="54" width="6" height="6" fill="#8B7355"/><rect x="42" y="54" width="6" height="6" fill="#8B7355"/><rect x="48" y="54" width="6" height="6" fill="#8B7355"/><rect x="54" y="54" width="6" height="6" fill="#8B7355"/><rect x="60" y="54" width="6" height="6" fill="#8B7355"/><rect x="30" y="60" width="6" height="6" fill="#8B7355"/><rect x="36" y="60" width="6" height="6" fill="#8B7355"/><rect x="42" y="60" width="6" height="6" fill="#8B7355"/><rect x="48" y="60" width="6" height="6" fill="#8B7355"/><rect x="54" y="60" width="6" height="6" fill="#8B7355"/></svg>