<svg xmlns="http://www.w3.org/2000/svg" width="512" height="512" viewBox="0 0 64 64">
  <!-- Background -->
  <rect width="64" height="64" fill="#0F172A"/>

  <!-- Green accent ring -->
  <rect x="4" y="4" width="56" height="56" rx="8" fill="none" stroke="#22C55E" stroke-width="3"/>

  <!-- Pixelbara body -->
  <g transform="translate(12, 14)">
    <!-- Body -->
    <rect x="4" y="20" width="32" height="16" fill="#8B7355"/>
    <rect x="8" y="18" width="24" height="4" fill="#8B7355"/>
    <rect x="6" y="36" width="4" height="6" fill="#6B5344"/>
    <rect x="30" y="36" width="4" height="6" fill="#6B5344"/>

    <!-- Head -->
    <rect x="8" y="4" width="24" height="18" fill="#8B7355"/>
    <rect x="6" y="6" width="4" height="14" fill="#8B7355"/>
    <rect x="30" y="6" width="4" height="14" fill="#8B7355"/>

    <!-- Ears -->
    <rect x="6" y="2" width="6" height="6" fill="#8B7355"/>
    <rect x="28" y="2" width="6" height="6" fill="#8B7355"/>
    <rect x="8" y="4" width="2" height="2" fill="#6B5344"/>
    <rect x="30" y="4" width="2" height="2" fill="#6B5344"/>

    <!-- Eyes -->
    <rect x="12" y="10" width="4" height="4" fill="#1A1A1A"/>
    <rect x="24" y="10" width="4" height="4" fill="#1A1A1A"/>
    <rect x="13" y="11" width="2" height="2" fill="#FFFFFF"/>
    <rect x="25" y="11" width="2" height="2" fill="#FFFFFF"/>

    <!-- Nose -->
    <rect x="18" y="16" width="4" height="3" fill="#4A3728"/>
  </g>
</svg>