<svg xmlns="http://www.w3.org/2000/svg" width="72" height="72" viewBox="0 0 72 72"><rect width="72" height="72" fill="#0F172A"/><rect x="2" y="2" width="68" height="68" fill="none" stroke="#22C55E" stroke-width="2"/><rect x="22.5" y="4.5" width="4.5" height="4.5" fill="#8B7355"/><rect x="27" y="4.5" width="4.5" height="4.5" fill="#8B7355"/><rect x="31.5" y="4.5" width="4.5" height="4.5" fill="#8B7355"/><rect x="36" y="4.5" width="4.5" height="4.5" fill="#8B7355"/><rect x="40.5" y="4.5" width="4.5" height="4.5" fill="#8B7355"/><rect x="45" y="4.5" width="4.5" height="4.5" fill="#8B7355"/><rect x="18" y="9" width="4.5" height="4.5" fill="#8B7355"/><rect x="22.5" y="9" width="4.5" height="4.5" fill="#8B7355"/><rect x="27" y="9" width="4.5" height="4.5" fill="#8B7355"/><rect x="31.5" y="9" width="4.5" height="4.5" fill="#8B7355"/><rect x="36" y="9" width="4.5" height="4.5" fill="#8B7355"/><rect x="40.5" y="9" width="4.5" height="4.5" fill="#8B7355"/><rect x="45" y="9" width="4.5" height="4.5" fill="#8B7355"/><rect x="49.5" y="9" width="4.5" height="4.5" fill="#8B7355"/><rect x="13.5" y="13.5" width="4.5" height="4.5" fill="#8B7355"/><rect x="18" y="13.5" width="4.5" height="4.5" fill="#8B7355"/><rect x="22.5" y="13.5" width="4.5" height="4.5" fill="#8B7355"/><rect x="27" y="13.5" width="4.5" height="4.5" fill="#8B7355"/><rect x="31.5" y="13.5" width="4.5" height="4.5" fill="#8B7355"/><rect x="36" y="13.5" width="4.5" height="4.5" fill="#8B7355"/><rect x="40.5" y="13.5" width="4.5" height="4.5" fill="#8B7355"/><rect x="45" y="13.5" width="4.5" height="4.5" fill="#8B7355"/><rect x="49.5" y="13.5" width="4.5" height="4.5" fill="#8B7355"/><rect x="54" y="13.5" width="4.5" height="4.5" fill="#8B7355"/><rect x="9" y="18" width="4.5" height="4.5" fill="#8B7355"/><rect x="13.5" y="18" width="4.5" height="4.5" fill="#8B7355"/><rect x="18" y="18" width="4.5" height="4.5" fill="#8B7355"/><rect x="22.5" y="18" width="4.5" height="4.5" fill="#8B7355"/><rect x="27" y="18" width="4.5" height="4.5" fill="#8B7355"/><rect x="31.5" y="18" width="4.5" height="4.5" fill="#8B7355"/><rect x="36" y="18" width="4.5" height="4.5" fill="#8B7355"/><rect x="40.5" y="18" width="4.5" height="4.5" fill="#8B7355"/><rect x="45" y="18" width="4.5" height="4.5" fill="#8B7355"/><rect x="49.5" y="18" width="4.5" height="4.5" fill="#8B7355"/><rect x="54" y="18" width="4.5" height="4.5" fill="#8B7355"/><rect x="58.5" y="18" width="4.5" height="4.5" fill="#8B7355"/><rect x="9" y="22.5" width="4.5" height="4.5" fill="#8B7355"/><rect x="13.5" y="22.5" width="4.5" height="4.5" fill="#8B7355"/><rect x="18" y="22.5" width="4.5" height="4.5" fill="#8B7355"/><rect x="22.5" y="22.5" width="4.5" height="4.5" fill="#8B7355"/><rect x="27" y="22.5" width="4.5" height="4.5" fill="#1A1A1A"/><rect x="31.5" y="22.5" width="4.5" height="4.5" fill="#1A1A1A"/><rect x="36" y="22.5" width="4.5" height="4.5" fill="#8B7355"/><rect x="40.5" y="22.5" width="4.5" height="4.5" fill="#8B7355"/><rect x="45" y="22.5" width="4.5" height="4.5" fill="#1A1A1A"/><rect x="49.5" y="22.5" width="4.5" height="4.5" fill="#1A1A1A"/><rect x="54" y="22.5" width="4.5" height="4.5" fill="#8B7355"/><rect x="58.5" y="22.5" width="4.5" height="4.5" fill="#8B7355"/><rect x="9" y="27" width="4.5" height="4.5" fill="#8B7355"/><rect x="13.5" y="27" width="4.5" height="4.5" fill="#8B7355"/><rect x="18" y="27" width="4.5" height="4.5" fill="#8B7355"/><rect x="22.5" y="27" width="4.5" height="4.5" fill="#8B7355"/><rect x="27" y="27" width="4.5" height="4.5" fill="#1A1A1A"/><rect x="31.5" y="27" width="4.5" height="4.5" fill="#1A1A1A"/><rect x="36" y="27" width="4.5" height="4.5" fill="#8B7355"/><rect x="40.5" y="27" width="4.5" height="4.5" fill="#8B7355"/><rect x="45" y="27" width="4.5" height="4.5" fill="#8B7355"/><rect x="49.5" y="27" width="4.5" height="4.5" fill="#8B7355"/><rect x="54" y="27" width="4.5" height="4.5" fill="#8B7355"/><rect x="58.5" y="27" width="4.5" height="4.5" fill="#8B7355"/><rect x="9" y="31.5" width="4.5" height="4.5" fill="#8B7355"/><rect x="13.5" y="31.5" width="4.5" height="4.5" fill="#8B7355"/><rect x="18" y="31.5" width="4.5" height="4.5" fill="#8B7355"/><rect x="22.5" y="31.5" width="4.5" height="4.5" fill="#8B7355"/><rect x="27" y="31.5" width="4.5" height="4.5" fill="#8B7355"/><rect x="31.5" y="31.5" width="4.5" height="4.5" fill="#8B7355"/><rect x="36" y="31.5" width="4.5" height="4.5" fill="#8B7355"/><rect x="40.5" y="31.5" width="4.5" height="4.5" fill="#8B7355"/><rect x="45" y="31.5" width="4.5" height="4.5" fill="#8B7355"/><rect x="49.5" y="31.5" width="4.5" height="4.5" fill="#8B7355"/><rect x="54" y="31.5" width="4.5" height="4.5" fill="#8B7355"/><rect x="58.5" y="31.5" width="4.5" height="4.5" fill="#8B7355"/><rect x="13.5" y="36" width="4.5" height="4.5" fill="#8B7355"/><rect x="18" y="36" width="4.5" height="4.5" fill="#8B7355"/><rect x="22.5" y="36" width="4.5" height="4.5" fill="#8B7355"/><rect x="27" y="36" width="4.5" height="4.5" fill="#4A3728"/><rect x="31.5" y="36" width="4.5" height="4.5" fill="#4A3728"/><rect x="36" y="36" width="4.5" height="4.5" fill="#4A3728"/><rect x="40.5" y="36" width="4.5" height="4.5" fill="#8B7355"/><rect x="45" y="36" width="4.5" height="4.5" fill="#8B7355"/><rect x="49.5" y="36" width="4.5" height="4.5" fill="#8B7355"/><rect x="18" y="40.5" width="4.5" height="4.5" fill="#8B7355"/><rect x="22.5" y="40.5" width="4.5" height="4.5" fill="#8B7355"/><rect x="27" y="40.5" width="4.5" height="4.5" fill="#8B7355"/><rect x="31.5" y="40.5" width="4.5" height="4.5" fill="#8B7355"/><rect x="36" y="40.5" width="4.5" height="4.5" fill="#8B7355"/><rect x="40.5" y="40.5" width="4.5" height="4.5" fill="#8B7355"/><rect x="45" y="40.5" width="4.5" height="4.5" fill="#8B7355"/><rect x="22.5" y="45" width="4.5" height="4.5" fill="#8B7355"/><rect x="27" y="45" width="4.5" height="4.5" fill="#8B7355"/><rect x="31.5" y="45" width="4.5" height="4.5" fill="#8B7355"/><rect x="36" y="45" width="4.5" height="4.5" fill="#8B7355"/><rect x="40.5" y="45" width="4.5" height="4.5" fill="#8B7355"/></svg>