<svg xmlns="http://www.w3.org/2000/svg" width="128" height="128" viewBox="0 0 128 128"><rect width="128" height="128" fill="#0F172A"/><rect x="2" y="2" width="124" height="124" fill="none" stroke="#22C55E" stroke-width="2"/><rect x="40" y="8" width="8" height="8" fill="#8B7355"/><rect x="48" y="8" width="8" height="8" fill="#8B7355"/><rect x="56" y="8" width="8" height="8" fill="#8B7355"/><rect x="64" y="8" width="8" height="8" fill="#8B7355"/><rect x="72" y="8" width="8" height="8" fill="#8B7355"/><rect x="80" y="8" width="8" height="8" fill="#8B7355"/><rect x="32" y="16" width="8" height="8" fill="#8B7355"/><rect x="40" y="16" width="8" height="8" fill="#8B7355"/><rect x="48" y="16" width="8" height="8" fill="#8B7355"/><rect x="56" y="16" width="8" height="8" fill="#8B7355"/><rect x="64" y="16" width="8" height="8" fill="#8B7355"/><rect x="72" y="16" width="8" height="8" fill="#8B7355"/><rect x="80" y="16" width="8" height="8" fill="#8B7355"/><rect x="88" y="16" width="8" height="8" fill="#8B7355"/><rect x="24" y="24" width="8" height="8" fill="#8B7355"/><rect x="32" y="24" width="8" height="8" fill="#8B7355"/><rect x="40" y="24" width="8" height="8" fill="#8B7355"/><rect x="48" y="24" width="8" height="8" fill="#8B7355"/><rect x="56" y="24" width="8" height="8" fill="#8B7355"/><rect x="64" y="24" width="8" height="8" fill="#8B7355"/><rect x="72" y="24" width="8" height="8" fill="#8B7355"/><rect x="80" y="24" width="8" height="8" fill="#8B7355"/><rect x="88" y="24" width="8" height="8" fill="#8B7355"/><rect x="96" y="24" width="8" height="8" fill="#8B7355"/><rect x="16" y="32" width="8" height="8" fill="#8B7355"/><rect x="24" y="32" width="8" height="8" fill="#8B7355"/><rect x="32" y="32" width="8" height="8" fill="#8B7355"/><rect x="40" y="32" width="8" height="8" fill="#8B7355"/><rect x="48" y="32" width="8" height="8" fill="#8B7355"/><rect x="56" y="32" width="8" height="8" fill="#8B7355"/><rect x="64" y="32" width="8" height="8" fill="#8B7355"/><rect x="72" y="32" width="8" height="8" fill="#8B7355"/><rect x="80" y="32" width="8" height="8" fill="#8B7355"/><rect x="88" y="32" width="8" height="8" fill="#8B7355"/><rect x="96" y="32" width="8" height="8" fill="#8B7355"/><rect x="104" y="32" width="8" height="8" fill="#8B7355"/><rect x="16" y="40" width="8" height="8" fill="#8B7355"/><rect x="24" y="40" width="8" height="8" fill="#8B7355"/><rect x="32" y="40" width="8" height="8" fill="#8B7355"/><rect x="40" y="40" width="8" height="8" fill="#8B7355"/><rect x="48" y="40" width="8" height="8" fill="#1A1A1A"/><rect x="56" y="40" width="8" height="8" fill="#1A1A1A"/><rect x="64" y="40" width="8" height="8" fill="#8B7355"/><rect x="72" y="40" width="8" height="8" fill="#8B7355"/><rect x="80" y="40" width="8" height="8" fill="#1A1A1A"/><rect x="88" y="40" width="8" height="8" fill="#1A1A1A"/><rect x="96" y="40" width="8" height="8" fill="#8B7355"/><rect x="104" y="40" width="8" height="8" fill="#8B7355"/><rect x="16" y="48" width="8" height="8" fill="#8B7355"/><rect x="24" y="48" width="8" height="8" fill="#8B7355"/><rect x="32" y="48" width="8" height="8" fill="#8B7355"/><rect x="40" y="48" width="8" height="8" fill="#8B7355"/><rect x="48" y="48" width="8" height="8" fill="#1A1A1A"/><rect x="56" y="48" width="8" height="8" fill="#1A1A1A"/><rect x="64" y="48" width="8" height="8" fill="#8B7355"/><rect x="72" y="48" width="8" height="8" fill="#8B7355"/><rect x="80" y="48" width="8" height="8" fill="#8B7355"/><rect x="88" y="48" width="8" height="8" fill="#8B7355"/><rect x="96" y="48" width="8" height="8" fill="#8B7355"/><rect x="104" y="48" width="8" height="8" fill="#8B7355"/><rect x="16" y="56" width="8" height="8" fill="#8B7355"/><rect x="24" y="56" width="8" height="8" fill="#8B7355"/><rect x="32" y="56" width="8" height="8" fill="#8B7355"/><rect x="40" y="56" width="8" height="8" fill="#8B7355"/><rect x="48" y="56" width="8" height="8" fill="#8B7355"/><rect x="56" y="56" width="8" height="8" fill="#8B7355"/><rect x="64" y="56" width="8" height="8" fill="#8B7355"/><rect x="72" y="56" width="8" height="8" fill="#8B7355"/><rect x="80" y="56" width="8" height="8" fill="#8B7355"/><rect x="88" y="56" width="8" height="8" fill="#8B7355"/><rect x="96" y="56" width="8" height="8" fill="#8B7355"/><rect x="104" y="56" width="8" height="8" fill="#8B7355"/><rect x="24" y="64" width="8" height="8" fill="#8B7355"/><rect x="32" y="64" width="8" height="8" fill="#8B7355"/><rect x="40" y="64" width="8" height="8" fill="#8B7355"/><rect x="48" y="64" width="8" height="8" fill="#4A3728"/><rect x="56" y="64" width="8" height="8" fill="#4A3728"/><rect x="64" y="64" width="8" height="8" fill="#4A3728"/><rect x="72" y="64" width="8" height="8" fill="#8B7355"/><rect x="80" y="64" width="8" height="8" fill="#8B7355"/><rect x="88" y="64" width="8" height="8" fill="#8B7355"/><rect x="32" y="72" width="8" height="8" fill="#8B7355"/><rect x="40" y="72" width="8" height="8" fill="#8B7355"/><rect x="48" y="72" width="8" height="8" fill="#8B7355"/><rect x="56" y="72" width="8" height="8" fill="#8B7355"/><rect x="64" y="72" width="8" height="8" fill="#8B7355"/><rect x="72" y="72" width="8" height="8" fill="#8B7355"/><rect x="80" y="72" width="8" height="8" fill="#8B7355"/><rect x="40" y="80" width="8" height="8" fill="#8B7355"/><rect x="48" y="80" width="8" height="8" fill="#8B7355"/><rect x="56" y="80" width="8" height="8" fill="#8B7355"/><rect x="64" y="80" width="8" height="8" fill="#8B7355"/><rect x="72" y="80" width="8" height="8" fill="#8B7355"/></svg>